<svg xmlns="http://www.w3.org/2000/svg" viewBox="0 0 635.19 376.45"><defs><style>.cls-1{fill:none;}.cls-1,.cls-2,.cls-3{stroke:#000;stroke-miterlimit:10;}.cls-2{fill:#b58f3c;}.cls-3{fill:#eaea7d;}</style></defs><g id="Outline"><path class="cls-1" d="M445.5,479.5a526.14,526.14,0,0,0,89.66-13,462.84,462.84,0,0,0,71.34-23c6.56-2.72,35-18.43,75-34.95,25.75-10.63,40.49-15.33,46-17.05,28-8.7,49.54-15.2,78-14.59,24.6.52,40.41,6,47,8.59a123,123,0,0,1,20,10C878.35,399,894,408,976.15,438.06c28.6,10.46,63.72,22.91,104.35,36.44" transform="translate(-445.47 -224.9)"/><path class="cls-1" d="M949.5,593.5a198.88,198.88,0,0,0-28.83-107.22c-.72-1.19-1.49-2.35-2.3-3.48-3.52-4.93-7.46-10.06-11.87-15.3-4.66-5.53-9.3-10.55-13.83-15.09A61.32,61.32,0,0,0,877,441a236.58,236.58,0,0,0-49.52-18.5,62.67,62.67,0,0,1-7.23-2.31l-1.7-.64a92.76,92.76,0,0,0-26-5,96,96,0,0,0-35.8,5.79,61.2,61.2,0,0,1-6.65,2c-13.19,3.11-34.57,10.08-53.55,26.23a127,127,0,0,0-18,19,122.36,122.36,0,0,0-16,28A381.22,381.22,0,0,0,640,601.32" transform="translate(-445.47 -224.9)"/><path class="cls-1" d="M835.37,428.19" transform="translate(-445.47 -224.9)"/><polygon class="cls-2" points="389.9 204.67 424.03 246.6 438.03 280.6 444.03 334.6 501.03 367.6 498.03 325.6 478.03 271.6 444.03 227.6 412.03 209.6 389.9 204.67"/></g><g id="star"><polygon class="cls-3" points="119.03 41.6 129.03 1.6 143.03 35.6 183.12 41.6 151.03 63.6 183.03 94.6 137.56 82 116.03 107.6 121.03 67.6 85.03 63.6 119.03 41.6"/></g></svg>